<svg width="1440" height="586" viewBox="0 0 1440 586" fill="none" xmlns="http://www.w3.org/2000/svg">
<g clip-path="url(#clip0_375_1747)">
<path fill-rule="evenodd" clip-rule="evenodd" d="M1440 -582H0V586H454.174C408.184 584.038 366.7 572.443 329.721 551.215C289.167 527.826 257.101 493.968 233.523 449.641C210.133 405.314 198.439 351.65 198.439 288.65C198.439 225.461 210.322 171.702 234.089 127.376C257.855 83.0488 290.11 49.285 330.853 26.0842C371.596 2.69476 417.432 -9 468.361 -9C501.936 -9 533.059 -4.28436 561.73 5.14685C590.589 14.5781 616.148 28.3477 638.406 46.4556C660.664 64.375 678.771 86.3498 692.73 112.38C706.877 138.41 715.931 168.213 719.892 201.788H595.965C593.702 185.755 589.08 171.514 582.101 159.065C575.122 146.427 566.163 135.675 555.222 126.81C544.282 117.944 531.644 111.154 517.309 106.438C503.162 101.723 487.789 99.3649 471.19 99.3649C441.199 99.3649 415.074 106.816 392.816 121.717C370.559 136.43 353.3 157.933 341.039 186.227C328.778 214.332 322.648 248.473 322.648 288.65C322.648 329.959 328.778 364.666 341.039 392.771C353.488 420.876 370.842 442.096 393.099 456.431C415.357 470.767 441.104 477.935 470.341 477.935C486.752 477.935 501.936 475.766 515.894 471.427C530.041 467.089 542.584 460.77 553.525 452.47C564.465 443.982 573.519 433.702 580.687 421.63C588.043 409.558 593.136 395.789 595.965 380.321L719.892 380.887C716.685 407.483 708.669 433.136 695.842 457.846C683.204 482.367 666.134 504.342 644.63 523.77C623.316 543.01 597.852 558.289 568.237 569.606C542.754 579.244 514.37 584.709 483.086 586H719.899L728.069 -1.07776H849.632H850.58H1290.28H1325.53H1440V-582ZM1440 264.292L1325.53 61.4069V99.9308H1148.13V586H1440V264.292ZM1027.03 586V99.9308H849.632V67.0414L842.411 586H1027.03Z" fill="white"/>
</g>
<defs>
<clipPath id="clip0_375_1747">
<rect width="1440" height="586" fill="white"/>
</clipPath>
</defs>
</svg>
