<svg width="1440" height="589" viewBox="0 0 1440 589" fill="none" xmlns="http://www.w3.org/2000/svg">
<g clip-path="url(#clip0_375_1741)">
<path fill-rule="evenodd" clip-rule="evenodd" d="M1440 8.79623V0L1367.75 8.42788e-08C1393.09 0.00702383 1417.17 2.9391 1440 8.79623ZM1367.57 8.42788e-08L898.679 0C942.629 0 980.071 8.54559 1011.01 25.6368C1041.94 42.536 1065.52 66.0604 1081.74 96.21C1098.11 126.093 1106.56 168.587 1106.61 207.682C1112.52 182.678 1120.97 159.731 1131.97 138.842C1155.74 93.7135 1188.09 59.3391 1229.02 35.7187C1269.93 11.9204 1316.11 0.0141623 1367.57 8.42788e-08ZM533.857 0H295.056L411.91 201.062H416.437L533.857 0ZM0 589.934H152.737H163.588H293.075L411.91 388.585H416.437L535.271 589.934H670.064H676.175H792.577V398.667H895.567C940.082 398.667 977.996 390.313 1009.31 373.606C1040.81 356.899 1064.86 333.566 1081.46 303.609C1088.14 291.546 1093.52 280.044 1097.56 268.048C1096.74 279.376 1096.32 291.037 1096.32 303.033C1096.32 367.173 1108.21 421.807 1131.97 466.935C1155.74 512.064 1187.84 538.469 1228.77 562.281C1269.7 586.094 1315.92 598 1367.41 598C1392.87 598 1417.07 595.07 1440 589.211V1168H0V589.934ZM0 346.241V487.099H163.588V572.287L334.102 294.967L162.456 10.4811V102.835H0V243.406H142.368V346.241H0ZM1440 129.208V476.858C1419.1 489.446 1394.99 495.741 1367.66 495.741C1338.05 495.741 1312.2 488.347 1290.14 473.561C1268.07 458.774 1250.9 437.074 1238.64 408.46C1226.57 379.847 1220.53 344.705 1220.53 303.033C1220.53 261.361 1226.57 226.218 1238.64 197.605C1250.9 168.992 1268.07 147.292 1290.14 132.505C1312.2 117.718 1338.05 110.325 1367.66 110.325C1394.99 110.325 1419.1 116.619 1440 129.208ZM670.064 3.58678V579.964L495.377 294.967L670.064 3.58678ZM875.761 298.712H792.577V101.971H875.195C898.962 101.971 918.579 106.1 934.046 114.357C949.514 122.423 961.02 133.849 968.565 148.636C976.299 163.231 980.165 180.322 980.165 199.909C980.165 219.305 976.299 236.492 968.565 251.471C961.02 266.258 949.514 277.876 934.046 286.326C918.767 294.583 899.339 298.712 875.761 298.712Z" fill="white"/>
</g>
<defs>
<clipPath id="clip0_375_1741">
<rect width="1440" height="589" fill="white"/>
</clipPath>
</defs>
</svg>
