<svg width="817" height="517" viewBox="0 0 817 517" fill="none" xmlns="http://www.w3.org/2000/svg">
<path d="M125.776 3.65759H179.716V183.625C179.716 200.261 175.977 214.712 168.499 226.979C161.106 239.246 150.813 248.698 137.622 255.335C124.431 261.973 109.098 265.291 91.6222 265.291C76.0788 265.291 61.9637 262.561 49.2769 257.1C36.6741 251.554 26.6759 243.152 19.2823 231.894C11.8886 220.551 8.23382 206.31 8.31784 189.171H62.6358C62.8039 195.976 64.1902 201.815 66.7947 206.688C69.4833 211.477 73.1382 215.174 77.7592 217.779C82.4642 220.299 88.0094 221.56 94.3948 221.56C101.116 221.56 106.788 220.131 111.409 217.275C116.114 214.334 119.684 210.049 122.121 204.42C124.557 198.791 125.776 191.859 125.776 183.625V3.65759ZM462.018 132.71C462.018 160.856 456.683 184.802 446.012 204.546C435.426 224.29 420.975 239.372 402.659 249.79C384.427 260.124 363.926 265.291 341.157 265.291C318.22 265.291 297.636 260.082 279.404 249.664C261.172 239.246 246.762 224.164 236.176 204.42C225.59 184.676 220.297 160.772 220.297 132.71C220.297 104.564 225.59 80.6186 236.176 60.8742C246.762 41.1299 261.172 26.0905 279.404 15.7563C297.636 5.33796 318.22 0.128804 341.157 0.128804C363.926 0.128804 384.427 5.33796 402.659 15.7563C420.975 26.0905 435.426 41.1299 446.012 60.8742C456.683 80.6186 462.018 104.564 462.018 132.71ZM406.692 132.71C406.692 114.478 403.961 99.1027 398.5 86.5839C393.123 74.0651 385.519 64.571 375.689 58.1016C365.859 51.6322 354.348 48.3975 341.157 48.3975C327.966 48.3975 316.456 51.6322 306.626 58.1016C296.796 64.571 289.15 74.0651 283.689 86.5839C278.311 99.1027 275.623 114.478 275.623 132.71C275.623 150.942 278.311 166.317 283.689 178.836C289.15 191.355 296.796 200.849 306.626 207.319C316.456 213.788 327.966 217.023 341.157 217.023C354.348 217.023 365.859 213.788 375.689 207.319C385.519 200.849 393.123 191.355 398.5 178.836C403.961 166.317 406.692 150.942 406.692 132.71ZM557.011 3.65759V261.763H502.441V3.65759H557.011ZM817.795 3.65759V261.763H770.66L658.369 99.3127H656.479V261.763H601.909V3.65759H649.799L761.208 165.981H763.477V3.65759H817.795ZM181.858 252.658H236.428V420.275C236.428 439.095 231.933 455.562 222.943 469.678C214.037 483.793 201.561 494.799 185.513 502.697C169.465 510.511 150.771 514.417 129.431 514.417C108.006 514.417 89.2697 510.511 73.2222 502.697C57.1746 494.799 44.6979 483.793 35.7919 469.678C26.8859 455.562 22.433 439.095 22.433 420.275V252.658H77.003V415.612C77.003 425.442 79.1455 434.18 83.4304 441.825C87.7994 449.471 93.9327 455.478 101.83 459.847C109.728 464.216 118.928 466.401 129.431 466.401C140.017 466.401 149.217 464.216 157.031 459.847C164.928 455.478 171.02 449.471 175.305 441.825C179.674 434.18 181.858 425.442 181.858 415.612V252.658ZM421.343 326.888C420.334 316.722 416.007 308.824 408.362 303.195C400.716 297.565 390.34 294.751 377.233 294.751C368.327 294.751 360.807 296.011 354.674 298.532C348.54 300.968 343.835 304.371 340.559 308.74C337.366 313.109 335.77 318.066 335.77 323.611C335.602 328.232 336.568 332.265 338.668 335.71C340.853 339.155 343.835 342.137 347.616 344.658C351.397 347.094 355.766 349.237 360.723 351.085C365.68 352.85 370.973 354.362 376.603 355.622L399.792 361.168C411.05 363.688 421.385 367.049 430.795 371.25C440.205 375.451 448.354 380.618 455.244 386.751C462.134 392.885 467.469 400.11 471.25 408.428C475.114 416.746 477.089 426.282 477.173 437.036C477.089 452.832 473.056 466.527 465.074 478.121C457.176 489.632 445.75 498.58 430.795 504.965C415.923 511.267 397.985 514.417 376.981 514.417C356.144 514.417 337.996 511.225 322.537 504.839C307.161 498.454 295.147 489.002 286.493 476.483C277.923 463.88 273.428 448.295 273.008 429.727H325.813C326.402 438.381 328.88 445.606 333.249 451.403C337.702 457.117 343.625 461.444 351.019 464.384C358.497 467.241 366.94 468.669 376.351 468.669C385.593 468.669 393.616 467.325 400.422 464.636C407.311 461.948 412.647 458.209 416.427 453.42C420.208 448.631 422.099 443.128 422.099 436.91C422.099 431.113 420.376 426.24 416.932 422.291C413.571 418.342 408.614 414.981 402.06 412.209C395.591 409.436 387.651 406.916 378.241 404.647L350.137 397.59C328.376 392.296 311.194 384.021 298.591 372.762C285.989 361.504 279.729 346.338 279.813 327.266C279.729 311.639 283.888 297.986 292.29 286.307C300.776 274.628 312.412 265.512 327.2 258.959C341.987 252.406 358.791 249.129 377.611 249.129C396.767 249.129 413.487 252.406 427.77 258.959C442.137 265.512 453.312 274.628 461.293 286.307C469.275 297.986 473.392 311.513 473.644 326.888H421.343Z" fill="#F3F4EF"/>
</svg>
