<svg width="1127" height="248" viewBox="0 0 1127 248" fill="none" xmlns="http://www.w3.org/2000/svg">
<g clip-path="url(#clip0_388_1537)">
<path d="M13.7145 135H46.4334V83.6685L109.716 83.0808C131.659 83.0808 150.86 66.8193 150.86 40.9576C150.86 12.7449 127.545 1.57738 101.683 1.57738H13.7145V135ZM99.5282 28.0268C109.324 28.0268 118.728 33.3167 118.728 45.4638C118.728 56.8273 109.52 63.8805 99.1363 63.8805H46.4334V28.0268H99.5282ZM176.036 135L186.028 109.726L243.629 110.118L253.621 135H294.764L240.886 2.36107H189.162L135.284 135H176.036ZM215.024 29.5942L237.555 89.938H191.709L215.024 29.5942ZM326.888 29.3983V135H359.606V29.3983H407.215V1.77331H279.083V29.3983H326.888ZM460.932 135V80.7297H533.031V135H569.276V2.16515H533.031V57.2191H460.932V2.16515H424.882V135H460.932ZM640.979 135H676.245L707.592 40.9576L736.785 135H774.206L827.104 1.96923H791.839L755.005 94.4442L725.029 1.96923H689.763L659.2 94.4442L618.448 1.96923H582.594L640.979 135ZM846.455 135L856.447 109.726L914.048 110.118L924.04 135H965.183L911.305 2.36107H859.582L805.703 135H846.455ZM885.443 29.5942L907.974 89.938H862.129L885.443 29.5942ZM1001.08 96.2075V135H1033.8V96.0116L1088.07 1.96923H1052.81L1016.56 69.7581L976.79 1.96923H940.936L1001.08 96.2075ZM33.5003 175.37V242H54.1443V175.37H84.1833V157.94H3.33766V175.37H33.5003ZM139.195 243.731C169.11 243.731 193.092 224.323 193.092 199.352C193.092 174.258 168.987 155.097 139.319 155.097C109.28 155.097 85.2978 174.876 85.2978 199.599C85.2978 224.323 109.403 243.731 139.195 243.731ZM108.538 200.094C108.538 181.922 122.507 171.291 140.307 171.415C157.119 171.538 169.976 181.428 169.976 199.105C169.976 218.018 155.265 227.66 138.948 227.66C123.001 227.66 108.538 218.389 108.538 200.094ZM237.767 199.352C237.767 224.446 261.872 243.731 291.664 243.731C317.747 243.731 340.246 230.998 343.46 211.714L322.445 208.994C320.343 221.48 308.229 229.144 291.541 229.144C270.773 229.144 259.771 216.906 259.771 199.723C259.771 181.798 272.751 169.931 291.293 170.055C306.498 170.178 320.961 176.112 322.816 191.935L344.325 189.957C341.482 167.953 319.107 155.097 291.664 155.097C261.749 154.973 237.767 173.64 237.767 199.352ZM407.797 243.731C437.712 243.731 461.694 224.323 461.694 199.352C461.694 174.258 437.588 155.097 407.92 155.097C377.881 155.097 353.9 174.876 353.9 199.599C353.9 224.323 378.005 243.731 407.797 243.731ZM377.14 200.094C377.14 181.922 391.108 171.291 408.909 171.415C425.721 171.538 438.577 181.428 438.577 199.105C438.577 218.018 423.867 227.66 407.55 227.66C391.603 227.66 377.14 218.389 377.14 200.094ZM473.183 242H493.828V209.612L533.756 209.241C547.601 209.241 559.716 198.981 559.716 182.664C559.716 164.863 545.005 157.817 528.688 157.817H473.183V242ZM527.328 174.505C533.509 174.505 539.442 177.843 539.442 185.507C539.442 192.677 533.632 197.127 527.081 197.127H493.828V174.505H527.328ZM573.928 233.347V242H660.707V224.817H604.708C608.788 202.813 660.954 211.467 660.954 180.562C660.954 164.492 645.873 153.49 619.79 153.49C591.11 153.49 575.287 163.998 575.287 183.653H596.179C596.179 174.381 605.574 170.549 620.16 170.549C633.635 170.549 640.186 174.011 640.186 181.304C640.31 203.061 573.928 191.688 573.928 233.347ZM719.707 243.978C737.508 243.978 763.344 238.168 763.344 215.793C763.344 204.668 755.432 199.228 745.543 196.756C752.342 193.171 756.792 187.114 756.792 178.955C756.792 159.3 734.788 154.726 719.089 154.726C703.39 154.726 681.262 159.3 681.262 178.955C681.262 187.238 685.836 193.418 693.006 197.127C683.611 199.723 676.194 205.162 676.194 215.793C676.317 238.168 702.03 243.978 719.707 243.978ZM697.085 213.321C697.085 202.195 712.166 201.454 720.202 201.454C727.866 201.454 742.453 202.937 742.453 213.321C742.453 224.57 728.36 226.795 719.707 226.795C711.054 226.795 697.085 224.694 697.085 213.321ZM719.089 171.909C725.517 171.909 739.733 173.145 739.733 182.169C739.733 190.204 730.709 192.553 724.405 192.553H713.773C707.345 192.553 698.321 190.081 698.321 182.169C698.321 173.145 712.661 171.909 719.089 171.909ZM860.832 243.607C891.489 243.607 904.345 224.817 904.345 211.219V157.817H881.599V214.433C881.599 223.705 871.463 230.504 861.697 230.504C852.055 230.504 840.064 225.435 840.064 214.433V157.817H817.442V211.219C817.442 224.694 829.68 243.607 860.832 243.607ZM932.569 242L938.874 226.053L975.217 226.301L981.522 242H1007.48L973.486 158.311H940.851L906.857 242H932.569ZM957.169 175.494L971.385 213.568H942.459L957.169 175.494ZM1016.54 157.94V242H1078.85V227.537H1037.19V207.634H1074.89V196.014H1037.19V174.258H1078.85V157.94H1016.54Z" fill="white"/>
</g>
<defs>
<clipPath id="clip0_388_1537">
<rect width="1127" height="248" fill="white"/>
</clipPath>
</defs>
</svg>
