<svg width="893" height="337" viewBox="0 0 893 337" fill="none" xmlns="http://www.w3.org/2000/svg">
<g clip-path="url(#clip0_286_477)">
<path d="M192.061 -23.4833H266.796V206.074C266.796 231.849 260.64 254.402 248.328 273.733C236.131 293.064 219.044 308.137 197.066 318.954C175.088 329.655 149.486 335.005 120.259 335.005C90.9176 335.005 65.2578 329.655 43.2802 318.954C21.3025 308.137 4.21521 293.064 -7.98181 273.733C-20.1788 254.402 -26.2773 231.849 -26.2773 206.074V-23.4833H48.4582V199.688C48.4582 213.15 51.3923 225.117 57.2607 235.588C63.2442 246.059 71.644 254.286 82.4602 260.27C93.2764 266.253 105.876 269.245 120.259 269.245C134.758 269.245 147.358 266.253 158.059 260.27C168.875 254.286 177.217 246.059 183.086 235.588C189.069 225.117 192.061 213.15 192.061 199.688V-23.4833ZM389.212 330H309.126L431.154 -23.4833H527.464L649.319 330H569.233L480.69 57.2932H477.928L389.212 330ZM384.207 191.058H573.376V249.396H384.207V191.058ZM691.865 330V-23.4833H930.052V38.1346H766.601V122.363H917.798V183.981H766.601V268.382H930.742V330H691.865Z" fill="white"/>
</g>
<defs>
<clipPath id="clip0_286_477">
<rect width="893" height="337" fill="white"/>
</clipPath>
</defs>
</svg>
