<svg width="890" height="1200" viewBox="0 0 890 1200" fill="none" xmlns="http://www.w3.org/2000/svg">
<path fill-rule="evenodd" clip-rule="evenodd" d="M118.392 1200H326.961L211.082 976.357H118.392V1200ZM468.575 1200H806.884H890V1189.06C863.893 1196.35 836.188 1200 806.884 1200C752.964 1200 704.574 1187.74 661.715 1163.22C618.855 1138.7 584.983 1103.21 560.097 1056.74C535.211 1010.27 522.768 954.012 522.768 887.967C522.768 821.725 535.211 765.369 560.097 718.9C584.983 672.431 618.855 637.036 661.715 612.714C665.531 610.531 669.392 608.444 673.296 606.455H542.395V0H447.54V75.2285L144.463 500.566H448.133V606.455H341.897C343.552 607.236 345.19 608.037 346.811 608.858C379.4 625.073 404.187 648.109 421.173 677.968C438.356 707.629 446.948 742.53 446.948 782.671C446.948 823.01 438.258 857.713 420.877 886.781C403.496 915.651 378.314 937.798 345.33 953.221C343.351 954.152 341.347 955.055 339.318 955.93L468.575 1200ZM0 104.889V507.178L286.373 104.889H0ZM890 104.889H670.677V249.635H890V104.889ZM890 355.524H670.677V500.566H890V355.524ZM890 713.678C889.357 713.238 888.711 712.804 888.06 712.375C864.951 697.149 837.893 689.536 806.884 689.536C775.875 689.536 748.816 697.149 725.708 712.375C702.599 727.601 684.626 749.945 671.788 779.408C659.147 808.872 652.827 845.058 652.827 887.967C652.827 930.877 659.147 967.063 671.788 996.526C684.626 1025.99 702.599 1048.33 725.708 1063.56C748.816 1078.79 775.875 1086.4 806.884 1086.4C837.893 1086.4 864.951 1078.79 888.06 1063.56C888.711 1063.13 889.357 1062.7 890 1062.26V713.678ZM205.494 873.137H118.392V689.239H204.901C229.59 689.239 250.032 692.897 266.227 700.214C282.621 707.332 294.767 717.813 302.668 731.654C310.766 745.496 314.815 762.502 314.815 782.671C314.815 802.643 310.766 819.352 302.668 832.798C294.767 846.244 282.719 856.329 266.524 863.052C250.328 869.775 229.985 873.137 205.494 873.137Z" fill="white"/>
</svg>
